<svg version="1.1" xmlns="http://www.w3.org/2000/svg" x="0px" y="0px"
	 width="500px" height="500px" viewBox="0 0 500 500">
<style type="text/css">
	.st0{fill:#FFFFFF;}
</style>
<g>
	<path class="st0" d="M164.5,308.3c25.7,0,51.5-0.3,77.2,0.2c7.1,0.1,12-1,14.8-8.1c1.8-4.4,4.4-8.6,7-13.6H195
		c1.7-3.7,3-6.5,4.6-10.1c-6.2,0-11.6,0.2-17-0.1c-3.7-0.2-6.1,0.7-7.6,4.4c-1,2.5-2.8,4.6-4.1,6.9c-3.8,6.5-7.5,13.1-11.7,20.4
		H164.5z"/>
	<path class="st0" d="M159.6,203.6c0.4,1.1,0.5,1.7,0.9,2.2c5.7,10,11.5,20,17.3,30c0.4,0.7,1.4,1.4,2.1,1.4
		c6.3,0.1,12.6,0.1,19.9,0.1c-2-4.2-3.6-7.7-5.4-11.6c4.2-0.1,7.9,0.8,10-3.5c2.1-4.2,4.8-8.2,7.2-12.3c1.1-1.9,2.1-3.9,3.4-6.3
		L159.6,203.6L159.6,203.6z"/>
	<path class="st0" d="M267.4,103.2c-2.9,7.8-2.5,10.6,1.4,12.3c-1.5,3.7-3.1,7.4-4.7,11.3c-5.2-0.9-4.8,3.5-6.5,7.1
		c2.6,0.7,4.7,1.1,6.7,1.6c3,1,4.5-0.3,4.8-3.1c0.5-3.9,0.7-7.7,0.9-11.6c0.2-4,1.5-5.2,5.4-4.6l4.2,0.8c3.2,0.6,4.8,3,4.2,6.3
		c-0.9,5-1.8,10-2.7,15.2h5c0.7-4.2,1.2-8.2,1.8-12.1c0.6-3.8,1.2-7.6,1.6-11.4c0.3-3-1.3-4.5-4.2-5.5
		C279.3,107.5,272,109.2,267.4,103.2z"/>
	<path class="st0" d="M234.4,274.3c5.1,0.8,9.3-1.3,12.6-5.1c5.4-6.2,3.7-13.3,2.7-20.3c-0.4-3.1-1.7-5.5-5.5-5.8
		c-6.6-0.5-13.6,1.8-20.3-2.7h0c-0.1,1.8-0.4,2.7-0.4,3.6c0.9,6.6,1.7,13.2,2.8,19.8C227.1,268.7,228.7,273.3,234.4,274.3z
		 M236.2,252.1c6.9-0.3,10.2,3.3,9.3,10c-0.1,0.4-0.1,1-0.3,1.1c-2.9,1.1-5.8,2.8-8.8,3c-2.8,0.2-5-1.9-5.3-5.1
		c0-0.6-0.1-1.3-0.2-1.9C229.4,252.9,229.7,252.4,236.2,252.1z"/>
	<path class="st0" d="M224.8,361.4c-7.9-6.3-16.7-10.3-26.6-12c-2.6-0.5-5.3,0.3-8,0.5c-0.1,0.6-0.2,1.2-0.2,1.9
		c12.2,6.4,24.5,12.7,37.6,17.5C228.7,365.5,227.1,363.2,224.8,361.4z"/>
	<path class="st0" d="M214.3,252.2v20.6l0,0c0.4,0.2,0.7,0.5,1,0.9c1.5-1.8,5.5,0.5,5.4-3.8c-0.1-2.7-1.2-5.3-1.2-8
		c0-3.2-0.4-7.2,1.2-9.5c1.8-2.6,1-4.6,0.4-6.6c-0.3-1.1-2.6-2.2-4.1-2.4c-8-1-16.3,1.7-24.6-2.4v6.7c0,3.2,1.2,4.8,4.9,4.6
		C202.9,252,208.4,252.2,214.3,252.2z"/>
	<path class="st0" d="M351.7,205.9c-4.2,3-4.5,6.5-4,9.9c1.3,8.7,3.1,17.4,7.7,25.1c1.7,2.9,3.8,5.4,8.9,5.9
		C360,232.8,356,219.6,351.7,205.9z"/>
	<path class="st0" d="M319.5,149.4c-3.4,4.6-3,5.7,2.4,6.6c4-6.5,7.6-12.5,11.5-18.5c2.1-3.3,4.1-6.2-0.9-8.8
		c-0.6-0.3-0.6-1.6-1-2.3c-0.5-0.9-1.2-1.6-2-2.7c-0.9,1.3-1.5,2-1.9,2.8c-1.7,3.1-5.1,6-0.7,9.6c0.4,0.4,0,2.3-0.5,3.1
		C324.2,142.6,321.9,146.1,319.5,149.4z"/>
	<path class="st0" d="M299.6,276.7c-7.4,0-13.6-0.1-19.8,0.1c-1.2,0-2.7,0.8-3.5,1.8c-1.6,2-2.9,4.3-4.2,6.5
		c-7.2,12.6-14.4,25.2-21.9,38.3c-1.9-3.3-3.5-6.1-5.3-8.9c-0.5-0.8-1.5-1.8-2.2-1.8c-6.7-0.2-13.4-0.1-20.9-0.1
		c9.6,16.7,18.7,32.6,28.1,49C266.6,333.1,282.8,305.3,299.6,276.7z"/>
	<path class="st0" d="M342,338.8c5.1-6.6,9-13.8,10.6-22c0.7-3.7,0.7-7.7-2.2-10.6c-6.7,12.2-13.4,24.3-19.9,36.4
		C334.1,343.9,339.2,342.4,342,338.8z"/>
	<path class="st0" d="M339.7,165.7c-1.2,1.4-2.2,3-3.3,4.6c1.8,0.9,3,1.4,4.2,2c5.3-6,10.6-11.8,15.5-18.1c2.1-2.6,1.2-5.5-1.1-7.9
		c-3.3-3.4-8.2-5.5-8.9-11.1c-0.1-0.4-1.2-0.7-1.9-1.1c-2.1,2.7-4.1,5.1-6.4,8c2.9,2.7,5.5,5.4,8.3,7.8c2.6,2.3,3,5.2,0.8,7.7
		C344.5,160.3,342,163,339.7,165.7z"/>
	<path class="st0" d="M336.5,303.9c-3.7-6.5-7.8-12.8-11-19.5c-2.5-5.1-5.5-7.8-11.5-7c-4.2,0.6-8.6,0.1-13.5,0.1
		c1.8,3.5,3.2,6.2,4.7,9.1c-3.2,0.7-6.2-0.6-8,2.8c-3.2,6.1-6.9,11.9-10.8,18.6h52.2C337.8,306.4,337.2,305.1,336.5,303.9z"/>
	<path class="st0" d="M306.6,138.7c-4.2-2.2-8.6-4-13.1-6.1c-1.5,2.2-2.9,4.4-4.6,7.1c6.2,2.9,11.9,5.8,17.7,8.3
		c0.9,0.3,2.9-0.8,3.8-1.8c4.3-4.8,6.7-10.6,8.1-16.8c1.4-5.9,0.5-7.8-4.6-10.6c-2.8-1.5-6.6-1.8-7.8-5.7c-0.1-0.2-2.7-0.1-3.1,0.5
		c-3.9,6.1-3.2,8.4,3.2,11.3c0.1,0.1,0.3,0.1,0.4,0.1c7.4,1.8,6.1,6.4,4.4,12C310.3,139.4,308.9,139.9,306.6,138.7z"/>
	<path class="st0" d="M329,341.1c6.9-11.5,14-23,18.8-36.2c-2.1,0.2-3.9,0.5-5.1,1.5c-8.7,7.6-14,17.4-16.8,28.5
		C325.4,337.2,325.3,339.9,329,341.1z"/>
	<path class="st0" d="M369.7,241c0.5-3.5,0.7-7.3,0.1-10.9c-1.1-7.1-3.7-13.9-8.3-19.6c-2.2-2.8-4.9-5.1-8.3-4.6
		c4.2,13.4,8.4,26.5,12.8,40.7v0C367.5,244.4,369.4,242.8,369.7,241z"/>
	<path class="st0" d="M355.3,268.7c-6,9.9-6.5,21-6,32.1c0.1,1.5,1,2.9,1.9,4.2c0.5,0.8,1.6,1.1,2.4,1.6c0.5-0.8,1.2-1.6,1.4-2.5
		c1.1-6.1,2.3-12.1,3.1-18.2c0.9-6.5,1.4-13,2-19.5l-1.5-0.8C357.5,266.6,356,267.4,355.3,268.7z"/>
	<path class="st0" d="M363.9,302.9c4.7-8.4,5.1-17.5,4.2-26.7c-0.4-4.1-1.6-8.7-6.1-9.8c-1.8,13.6-3.6,27-5.5,41
		C359.8,308.1,362.2,306,363.9,302.9z"/>
	<path class="st0" d="M193.3,273.3c2.4-0.4,4.2-0.7,6.2-1.1c0-5.2,0-10-0.1-15.2c-2,0.5-3.6,0.8-5.5,1.3c0,2.5,0.1,5,0,7.4
		C193.8,268.1,193.6,270.4,193.3,273.3z"/>
	<path class="st0" d="M237.9,126c-2.3,0.4-4.7,0-7,0.2c-6.3,0.5-7.7,2.6-5.6,9.2l22.6-1.8c0.4-3,0.7-5.2,1-7.7
		c-1.1-0.4-2.2-0.6-3.5-1c-0.4-4.6-0.8-8.9-1-13.5c-0.3-5.2-1.7-6.3-6.9-6.6c-3.9-0.2-8,1.4-11.6-1.3c-0.2-0.1-2,1.1-2.1,1.7
		c-0.6,7.3,2.6,10.1,9.7,8.6c0.3,0,0.8-0.5,1-0.4c1.6,0.8,4,1.2,4.6,2.5c1.1,2.3,1.4,5.2,1.5,7.8C240.6,124.5,238.9,125.8,237.9,126
		z"/>
	<path class="st0" d="M349.6,170.2c-2.5,1.1-5.1,2.3-7.8,3.5c1.4,2,2.2,3.5,3.4,4.7c1.3,1.4,3.2,3.7,4.4,3.4
		c2.5-0.6,5.7-0.8,6.6-4.8c0.5-2.3,3.3-4.1,5-6.1c0.5,0.2,0.9,0.5,1.4,0.8c-1.5,8-3,16.1-4.5,24.2c6.6-1,9.2-3.5,9.5-8.1
		c0.2-2.4-1.8-5.8,1.7-7.2c3.8-1.5,4.4,2.6,6.6,4.6c1.3-1,2.3-1.7,3.1-2.3c3.1-2.3,3-3.7-0.3-8c-2.1-2.8-3.8-1.2-5.7,0.4
		c-1.3,1.1-2.8,1.9-4.2,2.9c-0.3-0.3-0.7-0.6-1.1-0.9c1-5.2,2-10.4,3.1-16.2c-3.5,1.6-8,0.9-8.7,6c0,0.4-0.6,0.9-1,1.1l-9.2,4.6
		C351.3,172.1,350.5,171.2,349.6,170.2z"/>
	<path class="st0" d="M383.1,238.6c0.8,1.8,2.8,3.1,4.3,4.6l1.7-0.8l-2.4-41c-0.6-0.2-1.2-0.4-1.7-0.4c-1,1.4-2.3,2.6-2.9,4.1
		c-1,2.6-1.8,5.3-2.1,8.1C379.1,221.9,379.5,230.5,383.1,238.6z"/>
	<path class="st0" d="M398,234.5c1.8-8.9,0.7-17.7-2.5-26.1c-1.2-3.3-2.9-7-7-7.2c0.6,13.8,1.2,27.5,1.9,41.2
		C394.2,241.6,397.2,238.6,398,234.5z"/>
	<path class="st0" d="M298.5,237.3c-1.4-2.6-2.2-4.3-3.3-6c-0.9-1.1-2.1-2.8-3.2-2.9c-6.3-0.2-12.6-0.1-18.9-0.1l-0.9,1.1
		c2,2.6,3.6,7.1,5.9,7.5C284.5,238,291.2,237.3,298.5,237.3z"/>
	<path class="st0" d="M319,237.2c1.7-0.1,4-1.3,4.9-2.7c4-6.1,7.7-12.4,11.5-18.7c2.4-3.9,4.8-7.8,7.5-12.4h-5.6
		c-25.9,0-51.7,0.2-77.6-0.2c-6.4-0.1-10.3,1.7-13.1,7.3c-2.6,5-5.7,9.7-9,15.2h70.1l0,0c-2.2,4-4.2,7.5-6.6,11.6
		C307.6,237.3,313.3,237.5,319,237.2z"/>
	<path class="st0" d="M226.8,282.6c-1.5-1.8-2.9-4.9-4.6-5c-6.6-0.5-13.2-0.2-19.8-0.2l-0.8,1.1c1.8,1.8,3.4,5.1,5.4,5.3
		c6.3,0.7,12.7,0.3,19,0.3v0C226.2,283.7,226.5,283.2,226.8,282.6z"/>
	<path class="st0" d="M278.3,245.8c-0.5-1.3-3.1-2-4.9-2.5c-1.5-0.4-3.3,0.1-5-0.1c-4.8-0.5-10,1.6-14.4-2.2
		c-0.3-0.3-1.4,0.1-2.3,0.3c0.3,3.6,0.7,7,1.1,10.6h17.6v20.8h0c5,0.8,6.9-0.1,6.6-2.7c-0.4-2.6-1.3-5.3-1.3-7.9
		c0-3.3-0.5-7.5,1.2-9.8C278.7,250,279.1,247.8,278.3,245.8z"/>
	<path class="st0" d="M308.4,251.7c3.2-2.1,0-4.4,0.5-6.6c0.1-0.4-2-1.8-3.2-1.9c-8.4-1-17.2,2-26.1-2.9c0.4,4.4,0.8,7.9,1.2,11.7
		h21v21.4c2.8-1.2,6.9,0.3,6.6-4.8c-0.3-2.8-1.3-5.5-1.3-8.3C307.1,257.4,305.1,253.9,308.4,251.7z"/>
	<path class="st0" d="M286.9,270.8c0.6-4.3,0.2-8.9,0.2-13.4c-4.5-0.1-6.3,1.5-5.9,5.6c0.3,3.2,0.1,6.5,0.1,11.1
		C283.6,272.8,286.8,272,286.9,270.8z"/>
	<path class="st0" d="M222.7,237.2c0.7,0,1.7-1,2.2-1.8c5.7-9.5,11.2-19.1,16.8-28.6c2.9-4.9,5.8-9.8,9-15.1c1,1.9,1.7,3.3,2.5,4.6
		c0.7,1,1.6,2.6,2.4,2.6c6.8,0.2,13.6,0.1,21.5,0.1c-9-15.5-17.5-30.1-26.4-45.4c-16.6,28.1-32.9,55.4-49.7,83.7
		C209,237.3,215.8,237.4,222.7,237.2z"/>
	<path class="st0" d="M227.1,92.3H270c5.5,0,5.5,0,5.5-5.3V27.3c0-8.8-0.1-17.7-0.2-26.5h0c-17.4,0-34.8,0-52.3-0.1
		c-0.1,0.4-0.2,0.8-0.2,1.2c0,28.9,0,57.7-0.1,86.6C222.7,91.8,224.3,92.3,227.1,92.3z"/>
	<path class="st0" d="M282.5,399.6c10.7,3.6,20.7,0.8,30.3-4.2c3-1.6,5.8-3.8,6-7.6c-13.9,2.3-27.4,4.5-42.2,7
		C278.9,396.7,280.4,398.9,282.5,399.6z"/>
	<path class="st0" d="M222.9,412.8v69.3c0,6.2,0.1,12.5,0.2,18.7h52.3c0.1-0.8,0.2-1.5,0.2-2.3v-82.6c0-1-0.2-2-0.3-3.1H222.9z"/>
	<path class="st0" d="M189.3,353.6C189.3,353.6,189.3,353.6,189.3,353.6C189.3,353.6,189.3,353.5,189.3,353.6z"/>
	<path class="st0" d="M223.2,394.4c1.7-1.5,3.7-2.7,5.2-4.5c3.1-3.7,8.1-3.8,11.2,0.1c1.2,1.4,2.5,2.8,4.4,4.8v-13h-11.3
		c-1-4.1-1.8-7.6-2.7-11.2l-1.5,0.3c0.2,3.3,0.4,6.6,0.7,10.5c-15.7-1.9-29.3-7.7-42.2-14.9c0.5-4,1-7.5,1.5-11.2
		c2.2,3.2,3.8,7.1,6.6,9.5c6.1,4.9,13.1,8.5,21,10c5.1,0.9,7.5,0.3,10.4-3.6c-12.4-5.8-24.8-11.7-37.2-17.6c0,0-0.1,0.1-0.1,0.2
		c0-7.2-2.1-10.7-7.6-13c-3.1-1.3-6-0.8-8.1,1.6c-2,2.2-2.2,4.8-0.6,7.8c2.8,5.2,7.2,7.4,12.9,8c-0.6,2.1-1.1,3.8-1.8,6
		c-5.1-3.7-9.9-7-14.4-10.6c-0.7-0.6-0.9-2.5-0.6-3.6c0.6-2.4,1.6-4.7,2.4-7c-0.4-0.2-0.7-0.4-1.1-0.5c4.6-6.3,2.3-12-0.3-16.5
		c-4.8-8.3-7.7-18.7-18.6-21.4c-0.5,0.4-1,0.9-1.4,1.3c6.6,11.9,13.1,23.8,20.1,36.5c-0.1,0-0.1,0-0.2-0.1c-0.7,1.5-1.6,2.8-2.2,4.3
		c-1.4,3.4-2.3,3.7-4.9,1.2c-9.8-9.4-18.5-19.7-24.8-31.7c2.2-2.7,4.5-5.3,6.7-7.9l-1.1-1.1c-2.4,1.9-4.7,3.8-7.2,5.9
		c-5.8-11.6-8.9-23.6-11.3-35.8c-0.8-4.3-0.1-6.5,4.2-7.9c2.2-0.7,4.3-2.4,5.9-4.2c1.7-1.9,3.7-4.5,3.7-6.8c0.1-2.1-1.8-5.1-3.7-6.3
		c-1.1-0.7-4.4,0.9-5.9,2.4c-3.8,3.8-1.5,7.7,1,11.4c-2.2,1-4,1.9-6.7,3.2c0-5.2,0.1-9.6,0-13.9c-0.1-2.5,0.6-3.8,3.4-4.3
		c2.5-0.5,4.8-2,7.2-3.1l-0.5-1.3c-3.1,0.8-6.3,1.6-9.9,2.6c0.1-4.8-1.1-9.3,1.7-13.4c2.4-3.7,0.1-6.5-1.8-9.7
		c-1.6,2.7-3.4,5.3-3.7,8.1c-0.5,4.9-0.1,9.8-0.1,15.4c-3.4-1.9-6.4-3.4-9.3-5c1.4,4.9,5.5,5.9,9.8,7.3v18c-2.7-0.7-5.4-1.4-7.5-2
		c0.5-2.8,1.4-4.7,1.3-6.7c-0.1-3.8-3.3-7.1-6.3-7.2c-3.8-0.1-5.2,2.6-5.5,5.4c-0.3,3.5,1.2,6.8,4.6,8.3c4.1,1.8,8.3,3.1,12.4,4.8
		c1,0.4,2.1,1.6,2.2,2.5c1.5,13,4.8,25.4,9.7,37.5c1.3,3.1,0.3,4.1-2.7,3.9c-2.4-0.2-4.7-0.5-7.9-0.8c3.2,3.4,6.5,2.8,9.6,2.7
		c2.5-0.1,3.8,0.8,5.1,3c3.6,6.2,7.4,12.3,11.7,18.1c4,5.5,8.8,10.4,13.6,16c-3.2,0.9-6.1,1.8-9,2.6c2.6,0.9,5.4,1.7,7.1,0.7
		c3.6-2.3,5.8-0.9,8.6,1.3c4.1,3.4,8.5,6.4,13.5,10.1c-3.2,1.4-5.8,2.5-8.5,3.6c-2.2-8.3-5.9-11.4-12.5-11.1
		c-3.4,0.2-5.2,2.1-5.6,5.6c-0.9,8.5,6.9,11.7,12.7,10.2c5-1.2,9.6-3.9,14.5-5.7c1.4-0.5,3.3-0.5,4.6,0c7.6,3,15.1,6.6,22.8,9.3
		c6,2.1,12.3,3.3,18.8,5c-2,2.4-3.8,4.4-5.6,6.5L223.2,394.4z M188.9,354.6c0,0-0.1,0.1-0.1,0.1
		C188.9,354.7,188.9,354.6,188.9,354.6C188.9,354.6,188.9,354.6,188.9,354.6z"/>
	<path class="st0" d="M119,331.5c-0.6,5.6,2.2,10,5.5,14c4.6,5.7,9.2,11.4,16.5,13.8c3.9,1.3,6.6,0.6,7.9-1.2
		c-9.7-9.8-19.4-19.5-29.2-29.4C119.6,329.6,119.2,330.6,119,331.5z"/>
	<path class="st0" d="M182.8,393.2c9.9,6.9,21,9.6,32.9,6.8c2.5-0.6,5.1-2.4,5-5.4c-13.8-2.3-27.1-4.5-41.3-6.9
		C180.6,389.7,181.3,392.1,182.8,393.2z"/>
	<path class="st0" d="M199.8,381.4c-10.6-1.9-17.3-0.1-19.8,4.9c13.9,2.2,27.4,4.4,41,6.6c0.3-0.6,0.5-1.1,0.6-1.6
		C217.1,382.4,207.8,382.9,199.8,381.4z"/>
	<path class="st0" d="M149.2,346.2c-5.1-5.9-10.7-11.5-16.6-16.5c-2.7-2.3-6.3-5.1-11.8-2.2c10.1,10.1,19.8,19.8,29.6,29.7
		C153.9,352.5,151.5,348.9,149.2,346.2z"/>
	<path class="st0" d="M395,276.6L395,276.6c-0.3-0.4-0.6-0.8-0.9-1.1c-1.7,0.9-3.8,1.5-5.2,2.8c-6.5,5.9-9.4,13.9-12.2,21.9
		c-1.1,3.1-1.4,6.5-1.5,9.8c0,1.2,1.5,2.4,2.3,3.6c0.9-0.9,2-1.7,2.5-2.7c2.8-5.8,5.6-11.5,8.2-17.4
		C390.6,288,392.7,282.3,395,276.6z"/>
	<path class="st0" d="M397,276.8c-5.8,13.2-11.4,25.7-16.9,38.3c6.3,1.6,10.1-2.4,12.3-7c3.2-6.7,5.2-14,7.7-21V284
		C399.1,281.5,398,279,397,276.8z"/>
	<path class="st0" d="M349.6,358.3c5.5,3.5,11.9,1.1,20.7-7.9c8.3-8.5,11.5-17.1,8.5-21.6C368.9,338.7,359.2,348.6,349.6,358.3z"/>
	<path class="st0" d="M312.4,381.4c-10.4-0.8-20.8-0.1-30.5,4.4c-2.5,1.1-5.1,2.7-4,7.1c13.5-2.2,26.9-4.4,40.6-6.6
		C317.8,382.2,314.8,381.6,312.4,381.4z"/>
	<polygon class="st0" points="318.8,387.8 318.8,387.8 318.8,387.8 	"/>
	<path class="st0" d="M369.5,327.6c-8,4.4-14.6,10.7-19.9,18.1c-2.2,3-4.3,6.6-1.2,11.9c10.3-10.3,20-19.9,29.8-29.6
		C374.6,324.9,371.8,326.3,369.5,327.6z"/>
	<path class="st0" d="M339.3,353.2c9.6-8.4,17.5-18.3,23-29.7c2.4-5,5.3-5.3,9.6-5.2c1.8,0.1,3.7-0.8,5.5-1.3l-0.2-1
		c-3.4-0.8-7.3,2.3-9.7-0.4c3.9-14.7,7.6-28.6,11.3-42.6c3.6-1.5,7.7-3.2,11.8-4.8c4-1.5,5.9-4.2,5.8-8.5c-0.1-2.6-0.9-5.1-3.7-5.6
		c-3-0.6-6.1,0.3-6.8,3.6c-0.6,2.9-0.1,6.1-0.1,10.1c-1.7,0.5-4.2,1.3-7.5,2.4c0.3-6.8,0.6-12.7,0.8-17.1c4.3-3,7.3-5.1,10.4-7.3
		l-0.8-1.3c-3,1.6-6.1,3.2-10.1,5.4c0-5-0.8-9.1,0.2-12.8c1.3-5-1.4-7.7-4-11.2c-1.7,3.7-3.4,6.5-1.1,10.8c1.8,3.4,1.7,8,2.5,12.7
		c-4.4-1-7.6-1.8-10.8-2.6c-0.1,0.5-0.3,1-0.5,1.5c3.6,1.5,7.1,3,11.1,4.7c-0.4,5-0.8,10.3-1.2,16c-1.2-0.5-1.6-0.7-2.1-0.9
		c-2.7-1.1-5-2-1.9-5.4c1-1,1.2-3.9,0.5-5.1c-1.5-2.3-3.6-4.5-6-5.8c-0.8-0.4-3.5,1.6-4.6,3.1c-1.6,2.3-0.2,8.3,2.1,10
		c2.4,1.8,4.9,3.8,7.7,5c3.7,1.6,4.3,4,3.4,7.4c-1.8,7.1-3.2,14.3-5.3,21.3c-1.6,5.1-3.9,9.9-6.1,15.3c-2.8-2.5-4.9-4.3-7-6.2
		l-1,0.9c0.9,1.3,1.6,2.7,2.6,3.9c1.1,1.4,2.3,2.7,3.6,4.2c-6.5,13-16.2,23.8-27.5,33.6c-1.5-2.6-2.8-4.9-4.1-7.1
		c-0.4,0.3-0.9,0.5-1.3,0.7c0.8,2.2,1.6,4.2,2.2,6.4c0.3,0.9,0.4,2.6-0.1,3c-4.7,3.9-9.6,7.5-15,11.6c-0.6-3-0.9-4.9-1.3-6.8
		c6.2,0,11.2-3.4,13.1-8.7c1.4-4.1-1.3-8.3-5.7-8.7c-4.6-0.4-10,3.1-10.6,7.8c-0.2,1.5-0.7,2.6-1.3,3.5l-0.3-1.5
		c-1.7-0.5-3.4-1.3-5-1.2c-11.6,0.7-21.7,5-30.1,12.9c-1.7,1.6-2.6,4-3.8,6h0c0.5,0.5,1.1,1,1.7,1.5l37.2-17.4c-0.9,1-2,1.8-3.2,2.6
		c-2.4,1.5-4.8,3-7.4,4.2l-23.7,10.3c-0.8,0.4-1.6,1.1-2.4,1.6c0.7,0.9,1.1,2.3,2,2.6c2.3,0.8,4.9,2,7,1.5
		c5.2-1.4,10.6-3.2,15.4-5.7c6.1-3.1,11.9-7,13.7-14.8c0.6,3.7,1.2,7,1.4,10.3c0,0.9-1.1,2.5-2,2.9c-9.7,3.9-19.4,7.9-29.3,11.5
		c-3.4,1.3-7.1,1.5-11.1,2.2c0.5-4.2,0.9-7.4,1.3-10.7c-0.5,0-1.1-0.1-1.7-0.2c-0.9,3.7-1.8,7.3-2.9,11.4v0c-2.7,0-5.6-0.1-8.3,0
		c-1,0.1-2.5,1.2-2.6,1.9c-0.3,3.2-0.1,6.4-0.1,10.2c1-0.7,1.5-0.9,1.8-1.2c0.4-0.4,0.9-0.9,1.3-1.4c4.9-6.3,8.5-6.3,13.4-0.4
		c1.2,1.4,3.2,2.2,4.8,3.2l0.6-0.9c-1.9-2.1-3.7-4.2-5.4-6.1c0.3-0.6,0.3-0.8,0.4-0.8c14.5-3.1,28.6-7.4,41.7-14.5
		c0.6-0.3,1.6-0.6,2.2-0.4c4.5,1.7,8.9,3.7,13.5,5.3c2.3,0.8,4.7,1.5,7,1.4c4.7-0.2,9.2-4.9,8.6-9.1c-0.4-2.2-1.9-5-3.8-6.1
		c-3.1-1.8-7-1.3-9.6,1.4c-2.4,2.4-3.9,5.5-6.1,8.7l-7.4-3.3c5.8-4.3,11-8,16.1-11.9c1.7-1.3,3-0.9,4.8-0.2c2.4,0.9,5.2,0.9,7.8,1.3
		c0-0.4,0.1-0.9,0.2-1.3c-2.9-0.8-5.8-1.7-9.2-2.6C338.5,354.2,338.8,353.6,339.3,353.2z"/>
	<path class="st0" d="M145.9,315.5c1.2,7.8,4.6,15,9.4,21.2c2,2.6,5.1,4.6,8,6.4c1.1,0.6,3.1-0.2,4.7-0.4c-0.4-1.4-0.4-2.9-1.2-4
		c-7.3-10-12.9-20.9-17.4-32.9v0C145.6,308.2,145.4,312,145.9,315.5z"/>
	<path class="st0" d="M139.9,265.3l-1.7,0.9l5.6,40.5c4.3-0.1,4.9-3,5.2-5.1c1.7-11,0.1-21.7-4.9-31.7
		C143.2,268.1,141.3,266.8,139.9,265.3z"/>
	<path class="st0" d="M131.8,271.9c-3.5,10.3-1.6,20.3,2.2,30c1.6,4.2,5.3,5.9,8.2,5.1c-1.9-13.4-3.8-26.9-5.9-41.6
		C134.6,267.8,132.6,269.6,131.8,271.9z"/>
	<path class="st0" d="M195.7,123.2c0.6,3.3,1.4,6.5,1.7,9.8c0.1,1-1,2.2-1.6,3.2c-0.5,0.9-1.7,1.8-1.7,2.7c0,1.7,0.7,3.5,1.1,5.6
		c2.2-0.6,4-1.2,5.9-1.3c4-0.6,4.7-2.9,3.2-6.2c-1.4-3.2-3.4-6.2-4.5-9.4c-0.6-1.7-0.7-5.2,0.1-5.6c3-1.5,6.5-2.7,9.8-2.7
		c3.4,0,3.7,3.7,4.5,6.4c1.2,4,2.4,8,3.7,12.4c2.1-1.5,5.4-1.1,4-4.8c-2.4-6.5-4.9-13-7.2-19.5c-1.2-3.2-3.5-4.3-6.7-3.7
		c-6.4,1.2-12.2,5.6-19.3,2.8C190.8,121.8,191.9,123.3,195.7,123.2z"/>
	<path class="st0" d="M135.7,166.6c4.4,5.7,8.5,11.3,12.9,17.1l3.2-4.5c-1.7-2-3.5-3.8-5-5.9c-2.2-3-4.6-6-5.8-9.4
		c-0.6-1.8,0.6-4.9,2.1-6.4c1.1-1.1,4-1.1,5.9-0.6c2.5,0.7,4.8,2.4,7.5,3.9c-1.4,1.8-2.5,3.3-3.8,4.7c-3.8,4-3.8,3.9-0.2,8
		c0.6,0.7,1.3,1.5,2.1,2.4c3.5-3.8,6.8-7.4,11-12c-6.2-5.4-12.1-10.8-18.1-15.8c-1.7-1.4-4-2.2-6.4-0.5c-5,3.6-5.8,5.8-4.2,11.9
		c0.2,0.9,0,1.9,0,3.7c-4.5-6-8.5-2.3-13.6-0.8c3.2,2.8,5.9,5,8.5,7.2C133.1,168.6,134.1,167.9,135.7,166.6z"/>
	<path class="st0" d="M155.6,144.9c4.7,3.2,10.1,5.3,15.6,8.1c-2.3,3.1-4,5.5-5.9,8c1.5,2.1,2.9,4,4.6,6.3c2.2-3,4.2-6,6.4-8.8
		c3.8-4.9,4.4-9.9,1.7-15.7c-1.5-3.3-4.5-6.3-3.3-10.7c0.6-2.4-4.4-6.5-6.1-5.6c-2.1,1.2-4,2.7-5.9,4.1c2.6,4.3,2.6,4.3,7.8,6.3
		c3.1,1.2,4.4,10.4,1.9,13.4c-0.4-0.2-0.9-0.3-1.3-0.6c-1.8-1.4-3.6-2.9-5.5-4.2c-1.9-1.2-3.5-2.1-2.5-5.1c0.7-2.2-3.1-7.2-4.7-6.7
		c-2.9,0.8-5.7,1.9-9.2,3.2C151.2,139.5,152.8,143,155.6,144.9z"/>
	<path class="st0" d="M147.7,205.8c-5.2,13.7-9.6,26.7-11.7,40.6c11.3-5.5,12-16.7,14.4-26.6C151.5,215.7,152.2,210.5,147.7,205.8z"
		/>
	<polygon class="st0" points="165.6,163.9 165.6,163.9 165.6,163.9 	"/>
	<path class="st0" d="M99,281.6v8.6c2.2,5.5,4,11.2,6.6,16.6c3.5,7,7.9,9.3,12.9,8c-5.5-12.6-11-25.2-16.7-38.3
		C100.8,278.3,99.9,280,99,281.6z"/>
	<path class="st0" d="M112,201.3c-0.8,13.7-1.5,27.3-2.2,40.9l1.8,0.9c1.6-2,3.6-3.7,4.6-5.9c1.3-2.8,2.2-5.9,2.2-8.9
		c-0.1-7.5-0.5-15.1-1.3-22.6C116.9,203.6,115.8,200.9,112,201.3z"/>
	<path class="st0" d="M105.7,241.7c0.4,0.6,1.9,0.4,2.8,0.6l0.2-2.4c-0.3-13-0.3-26.1,3.1-39.4c-5.2,1.3-7.5,4.6-9.1,8.7
		c-3,7.6-2.7,15.5-2,23.3C101,235.7,103.8,238.7,105.7,241.7z"/>
	<path class="st0" d="M121.7,313.8c0.6-1.5,1.6-3.1,1.6-4.6c0-12.1-5.9-21.8-13.2-30.8c-1.1-1.4-3.4-1.9-5.1-2.8
		c-0.4,0.4-0.9,0.9-1.4,1.3l16.3,37C120.5,313.9,121.2,313.9,121.7,313.8z"/>
	<path class="st0" d="M129.9,184.5c0.5,0.6,1.1,1.2,1.5,1.8c2.7,4.2,2.6,4.2,7.4,0.3c-5.1-4.1-10-8.2-15.1-12
		c-0.9-0.7-3.1-0.6-4.2,0c-2.6,1.5-4.9,3.6-7.8,5.9c3.4,1.9,6.3,3.7,9.2,5.4C125.6,181.1,126.4,181,129.9,184.5z"/>
	<polygon class="st0" points="109.8,242.2 109.8,242.2 109.8,242.2 	"/>
	<path class="st0" d="M136.9,210.8c-5.9,7.2-7.9,15.8-9.1,24.6c-0.7,4.9,2.3,9.2,5.4,10c4.1-13.1,8.1-26.2,12.2-39.4
		C142.3,205.9,140,207.1,136.9,210.8z"/>
</g>
</svg>
