<svg xmlns="http://www.w3.org/2000/svg" x="0px" y="0px"
	 width="500px" height="500px" viewBox="0 0 500 500">
<g>
	<path fill="#FFFFFF" d="M275.3,0.8c0.1,8.8,0.2,17.7,0.2,26.5c0,19.9,0,39.8,0,59.7c0,5.3,0,5.3-5.5,5.3c-14.3,0-28.6,0-42.9,0
		c-2.8,0-4.4-0.5-4.4-3.8c0.1-28.9,0.1-57.7,0.1-86.6c0-0.4,0.1-0.8,0.2-1.2C240.5,0.8,257.9,0.8,275.3,0.8z"/>
	<path fill="#FFFFFF" d="M223.1,500.8c-0.1-6.2-0.2-12.5-0.2-18.7c0-21.4,0-42.9,0-64.3c0-1.5,0-3.1,0-5c17.6,0,34.9,0,52.4,0
		c0.1,1.1,0.3,2.1,0.3,3.1c0,27.5,0,55.1,0,82.6c0,0.8-0.1,1.5-0.2,2.3C257.9,500.8,240.5,500.8,223.1,500.8z"/>
	<path fill="#FFFFFF" d="M99,281.6c0.9-1.6,1.8-3.3,2.8-5.1c5.7,13.1,11.2,25.7,16.7,38.3c-5,1.3-9.4-1-12.9-8
		c-2.6-5.4-4.4-11.1-6.6-16.6C99,287.3,99,284.5,99,281.6z"/>
	<path fill="#FFFFFF" d="M400.1,287.1c-2.5,7-4.5,14.3-7.7,21c-2.2,4.6-6,8.6-12.3,7c5.5-12.6,11.1-25.1,16.9-38.3
		c1,2.2,2.1,4.7,3.1,7.2C400.1,285,400.1,286,400.1,287.1z"/>
	<path fill="#FFFFFF" d="M307.7,225.7c-23.6,0-46.4,0-70.1,0c3.3-5.5,6.4-10.2,9-15.2c2.8-5.6,6.7-7.4,13.1-7.3
		c25.9,0.4,51.7,0.2,77.6,0.2c1.5,0,3.1,0,5.6,0c-2.7,4.6-5.1,8.5-7.5,12.4c-3.8,6.3-7.5,12.6-11.5,18.7c-0.9,1.4-3.2,2.6-4.9,2.7
		c-5.7,0.3-11.4,0.1-17.9,0.1C303.5,233.2,305.5,229.7,307.7,225.7z"/>
	<path fill="#FFFFFF" d="M265.9,382c1.1-4.1,2-7.7,2.9-11.4c0.6,0.1,1.2,0.2,1.7,0.2c-0.4,3.3-0.8,6.5-1.3,10.7
		c4-0.7,7.7-0.9,11.1-2.2c9.9-3.6,19.6-7.6,29.3-11.5c0.9-0.4,2-2,2-2.9c-0.2-3.3-0.8-6.6-1.4-10.3c-1.8,7.8-7.6,11.7-13.7,14.8
		c-4.8,2.5-10.2,4.3-15.4,5.7c-2.1,0.5-4.7-0.7-7-1.5c-0.9-0.3-1.3-1.7-2-2.6c0.8-0.5,1.6-1.2,2.4-1.6c7.9-3.5,15.8-6.8,23.7-10.3
		c2.6-1.2,5-2.7,7.4-4.2c2.4-1.5,4.4-3,4.8-6.4c0.6-4.7,6-8.2,10.6-7.8c4.4,0.4,7.1,4.6,5.7,8.7c-1.9,5.3-6.9,8.7-13.1,8.7
		c0.4,1.9,0.7,3.8,1.3,6.8c5.4-4.1,10.3-7.7,15-11.6c0.5-0.4,0.4-2.1,0.1-3c-0.6-2.2-1.4-4.2-2.2-6.4c0.4-0.2,0.9-0.4,1.3-0.7
		c1.3,2.2,2.6,4.5,4.1,7.1c11.3-9.8,21-20.6,27.5-33.6c-1.3-1.5-2.5-2.8-3.6-4.2c-1-1.2-1.7-2.6-2.6-3.9c0.3-0.3,0.7-0.6,1-0.9
		c2.1,1.9,4.2,3.7,7,6.2c2.2-5.4,4.5-10.2,6.1-15.3c2.1-7,3.5-14.2,5.3-21.3c0.9-3.4,0.3-5.8-3.4-7.4c-2.8-1.2-5.3-3.2-7.7-5
		c-2.3-1.7-3.7-7.7-2.1-10c1.1-1.5,3.8-3.5,4.6-3.1c2.4,1.3,4.5,3.5,6,5.8c0.7,1.2,0.5,4.1-0.5,5.1c-3.1,3.4-0.8,4.3,1.9,5.4
		c0.5,0.2,0.9,0.4,2.1,0.9c0.4-5.7,0.8-11,1.2-16c-4-1.7-7.5-3.2-11.1-4.7c0.2-0.5,0.4-1,0.5-1.5c3.2,0.8,6.4,1.6,10.8,2.6
		c-0.8-4.7-0.7-9.3-2.5-12.7c-2.3-4.3-0.6-7.1,1.1-10.8c2.6,3.5,5.3,6.2,4,11.2c-1,3.7-0.2,7.8-0.2,12.8c4-2.2,7.1-3.8,10.1-5.4
		c0.3,0.4,0.5,0.9,0.8,1.3c-3.1,2.2-6.1,4.3-10.4,7.3c-0.2,4.4-0.5,10.3-0.8,17.1c3.3-1.1,5.8-1.9,7.5-2.4c0-4-0.5-7.2,0.1-10.1
		c0.7-3.3,3.8-4.2,6.8-3.6c2.8,0.5,3.6,3,3.7,5.6c0.1,4.3-1.8,7-5.8,8.5c-4.1,1.6-8.2,3.3-11.8,4.8c-3.7,14-7.4,27.9-11.3,42.6
		c2.4,2.7,6.3-0.4,9.7,0.4c0.1,0.3,0.1,0.7,0.2,1c-1.8,0.5-3.7,1.4-5.5,1.3c-4.3-0.1-7.2,0.2-9.6,5.2c-5.5,11.4-13.4,21.3-23,29.7
		c-0.5,0.4-0.8,1-1.7,2c3.4,0.9,6.3,1.8,9.2,2.6c-0.1,0.4-0.2,0.9-0.2,1.3c-2.6-0.4-5.4-0.4-7.8-1.3c-1.8-0.7-3.1-1.1-4.8,0.2
		c-5.1,3.9-10.3,7.6-16.1,11.9c2.9,1.3,5.4,2.4,7.4,3.3c2.2-3.2,3.7-6.3,6.1-8.7c2.6-2.7,6.5-3.2,9.6-1.4c1.9,1.1,3.4,3.9,3.8,6.1
		c0.6,4.2-3.9,8.9-8.6,9.1c-2.3,0.1-4.7-0.6-7-1.4c-4.6-1.6-9-3.6-13.5-5.3c-0.6-0.2-1.6,0.1-2.2,0.4c-13.1,7.1-27.2,11.4-41.7,14.5
		c-0.1,0-0.1,0.2-0.4,0.8c1.7,1.9,3.5,4,5.4,6.1c-0.2,0.3-0.4,0.6-0.6,0.9c-1.6-1-3.6-1.8-4.8-3.2c-4.9-5.9-8.5-5.9-13.4,0.4
		c-0.4,0.5-0.9,1-1.3,1.4c-0.3,0.3-0.8,0.5-1.8,1.2c0-3.8-0.2-7,0.1-10.2c0.1-0.7,1.6-1.8,2.6-1.9C260.3,381.9,263.2,382,265.9,382z
		"/>
	<path fill="#FFFFFF" d="M195,286.8c22.9,0,45.3,0,68.5,0c-2.6,5-5.2,9.2-7,13.6c-2.8,7.1-7.7,8.2-14.8,8.1
		c-25.7-0.5-51.5-0.2-77.2-0.2c-1.5,0-3,0-5.3,0c4.2-7.3,7.9-13.9,11.7-20.4c1.3-2.3,3.1-4.4,4.1-6.9c1.5-3.7,3.9-4.6,7.6-4.4
		c5.4,0.3,10.8,0.1,17,0.1C198,280.3,196.7,283.1,195,286.8z"/>
	<path fill="#FFFFFF" d="M299.6,276.7c-16.8,28.6-33,56.4-49.7,84.9c-9.4-16.4-18.5-32.3-28.1-49c7.5,0,14.2-0.1,20.9,0.1
		c0.7,0,1.7,1,2.2,1.8c1.8,2.8,3.4,5.6,5.3,8.9c7.5-13.1,14.7-25.7,21.9-38.3c1.3-2.2,2.6-4.5,4.2-6.5c0.8-1,2.3-1.8,3.5-1.8
		C286,276.6,292.2,276.7,299.6,276.7z"/>
	<path fill="#FFFFFF" d="M201,237.3c16.8-28.3,33.1-55.6,49.7-83.7c8.9,15.3,17.4,29.9,26.4,45.4c-7.9,0-14.7,0.1-21.5-0.1
		c-0.8,0-1.7-1.6-2.4-2.6c-0.8-1.3-1.5-2.7-2.5-4.6c-3.2,5.3-6.1,10.2-9,15.1c-5.6,9.5-11.1,19.1-16.8,28.6
		c-0.5,0.8-1.5,1.8-2.2,1.8C215.8,237.4,209,237.3,201,237.3z"/>
	<path fill="#FFFFFF" d="M188.5,355.2c-0.5,3.7-1,7.3-1.5,11.3c12.9,7.2,26.5,13,42.2,14.9c-0.3-3.9-0.5-7.2-0.7-10.5
		c0.5-0.1,1-0.2,1.5-0.3c0.9,3.6,1.7,7.1,2.7,11.2c3.3,0,7.1,0,11.3,0c0,4.2,0,8,0,13c-1.9-2-3.2-3.4-4.4-4.8
		c-3.1-3.9-8.1-3.8-11.2-0.1c-1.5,1.8-3.5,3-5.2,4.5c-0.4-0.4-0.7-0.7-1.1-1.1c1.8-2.1,3.6-4.1,5.6-6.5c-6.5-1.7-12.8-2.9-18.8-5
		c-7.7-2.7-15.2-6.3-22.8-9.3c-1.3-0.5-3.2-0.5-4.6,0c-4.9,1.8-9.5,4.5-14.5,5.7c-5.8,1.5-13.6-1.7-12.7-10.2
		c0.4-3.5,2.2-5.4,5.6-5.6c6.6-0.3,10.3,2.8,12.5,11.1c2.7-1.1,5.3-2.2,8.5-3.6c-5-3.7-9.4-6.7-13.5-10.1c-2.8-2.2-5-3.6-8.6-1.3
		c-1.7,1-4.5,0.2-7.1-0.7c2.9-0.8,5.8-1.7,9-2.6c-4.8-5.6-9.6-10.5-13.6-16c-4.3-5.8-8.1-11.9-11.7-18.1c-1.3-2.2-2.6-3.1-5.1-3
		c-3.1,0.1-6.4,0.7-9.6-2.7c3.2,0.3,5.5,0.6,7.9,0.8c3,0.2,4-0.8,2.7-3.9c-4.9-12.1-8.2-24.5-9.7-37.5c-0.1-0.9-1.2-2.1-2.2-2.5
		c-4.1-1.7-8.3-3-12.4-4.8c-3.4-1.5-4.9-4.8-4.6-8.3c0.3-2.8,1.7-5.5,5.5-5.4c3,0.1,6.2,3.4,6.3,7.2c0.1,2-0.8,3.9-1.3,6.7
		c2.1,0.6,4.8,1.3,7.5,2c0-6.5,0-12.3,0-18c-4.3-1.4-8.4-2.4-9.8-7.3c2.9,1.6,5.9,3.1,9.3,5c0-5.6-0.4-10.5,0.1-15.4
		c0.3-2.8,2.1-5.4,3.7-8.1c1.9,3.2,4.2,6,1.8,9.7c-2.8,4.1-1.6,8.6-1.7,13.4c3.6-1,6.8-1.8,9.9-2.6c0.2,0.4,0.3,0.9,0.5,1.3
		c-2.4,1.1-4.7,2.6-7.2,3.1c-2.8,0.5-3.5,1.8-3.4,4.3c0.1,4.3,0,8.7,0,13.9c2.7-1.3,4.5-2.2,6.7-3.2c-2.5-3.7-4.8-7.6-1-11.4
		c1.5-1.5,4.8-3.1,5.9-2.4c1.9,1.2,3.8,4.2,3.7,6.3c0,2.3-2,4.9-3.7,6.8c-1.6,1.8-3.7,3.5-5.9,4.2c-4.3,1.4-5,3.6-4.2,7.9
		c2.4,12.2,5.5,24.2,11.3,35.8c2.5-2.1,4.8-4,7.2-5.9c0.4,0.4,0.7,0.7,1.1,1.1c-2.2,2.6-4.5,5.2-6.7,7.9c6.3,12,15,22.3,24.8,31.7
		c2.6,2.5,3.5,2.2,4.9-1.2c0.6-1.5,1.5-2.8,2.2-4.3c0.5,0.2,1,0.4,1.5,0.7c-0.8,2.3-1.8,4.6-2.4,7c-0.3,1.1-0.1,3,0.6,3.6
		c4.5,3.6,9.3,6.9,14.4,10.6c0.7-2.2,1.2-3.9,1.8-6c-5.7-0.6-10.1-2.8-12.9-8c-1.6-3-1.4-5.6,0.6-7.8c2.1-2.4,5-2.9,8.1-1.6
		c5.6,2.4,7.7,5.9,7.6,13.3C188.8,354.8,188.6,355,188.5,355.2z"/>
	<path fill="#FFFFFF" d="M159.6,203.6c18.6,0,36.6,0,55.4,0c-1.3,2.4-2.3,4.4-3.4,6.3c-2.4,4.1-5.1,8.1-7.2,12.3
		c-2.1,4.3-5.8,3.4-10,3.5c1.8,3.9,3.4,7.4,5.4,11.6c-7.3,0-13.6,0-19.9-0.1c-0.7,0-1.7-0.7-2.1-1.4c-5.8-10-11.6-20-17.3-30
		C160.1,205.3,160,204.7,159.6,203.6z"/>
	<path fill="#FFFFFF" d="M286.4,308c3.9-6.7,7.6-12.5,10.8-18.6c1.8-3.4,4.8-2.1,8-2.8c-1.5-2.9-2.9-5.6-4.7-9.1
		c4.9,0,9.3,0.5,13.5-0.1c6-0.8,9,1.9,11.5,7c3.2,6.7,7.3,13,11,19.5c0.7,1.2,1.3,2.5,2.1,4.1C321.2,308,304.2,308,286.4,308z"/>
	<path fill="#FFFFFF" d="M223.9,240.4c6.7,4.5,13.7,2.2,20.3,2.7c3.8,0.3,5.1,2.7,5.5,5.8c1,7,2.7,14.1-2.7,20.3
		c-3.3,3.8-7.5,5.9-12.6,5.1c-5.7-1-7.3-5.6-8.1-10.5c-1.1-6.6-1.9-13.2-2.8-19.8C223.5,243.1,223.8,242.2,223.9,240.4z
		 M236.2,252.1c-6.5,0.3-6.8,0.8-5.3,7.1c0.1,0.6,0.2,1.3,0.2,1.9c0.3,3.2,2.5,5.3,5.3,5.1c3-0.2,5.9-1.9,8.8-3
		c0.2-0.1,0.2-0.7,0.3-1.1C246.4,255.4,243.1,251.8,236.2,252.1z"/>
	<path fill="#FFFFFF" d="M165.6,163.9c-4.2,4.6-7.5,8.2-11,12c-0.8-0.9-1.5-1.7-2.1-2.4c-3.6-4.1-3.6-4,0.2-8
		c1.3-1.4,2.4-2.9,3.8-4.7c-2.7-1.5-5-3.2-7.5-3.9c-1.9-0.5-4.8-0.5-5.9,0.6c-1.5,1.5-2.7,4.6-2.1,6.4c1.2,3.4,3.6,6.4,5.8,9.4
		c1.5,2.1,3.3,3.9,5,5.9c-1.1,1.6-2.1,2.9-3.2,4.5c-4.4-5.8-8.5-11.4-12.9-17.1c-1.6,1.3-2.6,2-3.9,3c-2.6-2.2-5.3-4.4-8.5-7.2
		c5.1-1.5,9.1-5.2,13.6,0.8c0-1.8,0.2-2.8,0-3.7c-1.6-6.1-0.8-8.3,4.2-11.9c2.4-1.7,4.7-0.9,6.4,0.5
		C153.5,153.1,159.4,158.5,165.6,163.9z"/>
	<path fill="#FFFFFF" d="M375.9,185.2c-2.2-2-2.8-6.1-6.6-4.6c-3.5,1.4-1.5,4.8-1.7,7.2c-0.3,4.6-2.9,7.1-9.5,8.1
		c1.5-8.1,3-16.2,4.5-24.2c-0.5-0.3-0.9-0.6-1.4-0.8c-1.7,2-4.5,3.8-5,6.1c-0.9,4-4.1,4.2-6.6,4.8c-1.2,0.3-3.1-2-4.4-3.4
		c-1.2-1.2-2-2.7-3.4-4.7c2.7-1.2,5.3-2.4,7.8-3.5c0.9,1,1.7,1.9,2.3,2.6c3.2-1.6,6.2-3.1,9.2-4.6c0.4-0.2,1-0.7,1-1.1
		c0.7-5.1,5.2-4.4,8.7-6c-1.1,5.8-2.1,11-3.1,16.2c0.4,0.3,0.8,0.6,1.1,0.9c1.4-1,2.9-1.8,4.2-2.9c1.9-1.6,3.6-3.2,5.7-0.4
		c3.3,4.3,3.4,5.7,0.3,8C378.2,183.5,377.2,184.2,375.9,185.2z"/>
	<path fill="#FFFFFF" d="M257.6,133.9c1.7-3.6,1.3-8,6.5-7.1c1.6-3.9,3.2-7.6,4.7-11.3c-3.9-1.7-4.3-4.5-1.4-12.3
		c4.6,6,11.9,4.3,17.9,6.3c2.9,1,4.5,2.5,4.2,5.5c-0.4,3.8-1,7.6-1.6,11.4c-0.6,3.9-1.1,7.9-1.8,12.1c-1.5,0-3,0-5,0
		c0.9-5.2,1.8-10.2,2.7-15.2c0.6-3.3-1-5.7-4.2-6.3c-1.4-0.2-2.8-0.6-4.2-0.8c-3.9-0.6-5.2,0.6-5.4,4.6c-0.2,3.9-0.4,7.7-0.9,11.6
		c-0.3,2.8-1.8,4.1-4.8,3.1C262.3,135,260.2,134.6,257.6,133.9z"/>
	<path fill="#FFFFFF" d="M195.2,144.5c-0.4-2.1-1.1-3.9-1.1-5.6c0-0.9,1.2-1.8,1.7-2.7c0.6-1,1.7-2.2,1.6-3.2
		c-0.3-3.3-1.1-6.5-1.7-9.8c-3.8,0.1-4.9-1.4-7-10.3c7.1,2.8,12.9-1.6,19.3-2.8c3.2-0.6,5.5,0.5,6.7,3.7c2.3,6.5,4.8,13,7.2,19.5
		c1.4,3.7-1.9,3.3-4,4.8c-1.3-4.4-2.5-8.4-3.7-12.4c-0.8-2.7-1.1-6.4-4.5-6.4c-3.3,0-6.8,1.2-9.8,2.7c-0.8,0.4-0.7,3.9-0.1,5.6
		c1.1,3.2,3.1,6.2,4.5,9.4c1.5,3.3,0.8,5.6-3.2,6.2C199.2,143.3,197.4,143.9,195.2,144.5z"/>
	<path fill="#FFFFFF" d="M245.4,124.9c1.3,0.4,2.4,0.6,3.5,1c-0.3,2.5-0.6,4.7-1,7.7c-7.5,0.6-15.1,1.2-22.6,1.8
		c-2.1-6.6-0.7-8.7,5.6-9.2c2.3-0.2,4.7,0.2,7-0.2c1-0.2,2.7-1.5,2.7-2.3c-0.1-2.6-0.4-5.5-1.5-7.8c-0.6-1.3-3-1.7-4.6-2.5
		c-0.2-0.1-0.7,0.4-1,0.4c-7.1,1.5-10.3-1.3-9.7-8.6c0.1-0.6,1.9-1.8,2.1-1.7c3.6,2.7,7.7,1.1,11.6,1.3c5.2,0.3,6.6,1.4,6.9,6.6
		C244.6,116,245,120.3,245.4,124.9z"/>
	<path fill="#FFFFFF" d="M288.9,139.7c1.7-2.7,3.1-4.9,4.6-7.1c4.5,2.1,8.9,3.9,13.1,6.1c2.3,1.2,3.7,0.7,4.4-1.7
		c1.7-5.6,3-10.2-4.4-12c-0.1,0-0.3,0-0.4-0.1c-6.4-2.9-7.1-5.2-3.2-11.3c0.4-0.6,3-0.7,3.1-0.5c1.2,3.9,5,4.2,7.8,5.7
		c5.1,2.8,6,4.7,4.6,10.6c-1.4,6.2-3.8,12-8.1,16.8c-0.9,1-2.9,2.1-3.8,1.8C300.8,145.5,295.1,142.6,288.9,139.7z"/>
	<path fill="#FFFFFF" d="M165.3,161c1.9-2.5,3.6-4.9,5.9-8c-5.5-2.8-10.9-4.9-15.6-8.1c-2.8-1.9-4.4-5.4-6.4-8
		c3.5-1.3,6.3-2.4,9.2-3.2c1.6-0.5,5.4,4.5,4.7,6.7c-1,3,0.6,3.9,2.5,5.1c1.9,1.3,3.7,2.8,5.5,4.2c0.4,0.3,0.9,0.4,1.3,0.6
		c2.5-3,1.2-12.2-1.9-13.4c-5.2-2-5.2-2-7.8-6.3c1.9-1.4,3.8-2.9,5.9-4.1c1.7-0.9,6.7,3.2,6.1,5.6c-1.2,4.4,1.8,7.4,3.3,10.7
		c2.7,5.8,2.1,10.8-1.7,15.7c-2.2,2.8-4.2,5.8-6.4,8.8C168.2,165,166.8,163.1,165.3,161z"/>
	<path fill="#FFFFFF" d="M301.8,273.4c0-7.3,0-14.2,0-21.4c-7.1,0-14,0-21,0c-0.4-3.8-0.8-7.3-1.2-11.7c8.9,4.9,17.7,1.9,26.1,2.9
		c1.2,0.1,3.3,1.5,3.2,1.9c-0.5,2.2,2.7,4.5-0.5,6.6c-3.3,2.2-1.3,5.7-1.3,8.6c0,2.8,1,5.5,1.3,8.3
		C308.7,273.7,304.6,272.2,301.8,273.4z"/>
	<path fill="#FFFFFF" d="M214.3,272.8c0-6.7,0-13.5,0-20.6c-5.9,0-11.4-0.2-17,0.1c-3.7,0.2-4.9-1.4-4.9-4.6c0-2.2,0-4.3,0-6.7
		c8.3,4.1,16.6,1.4,24.6,2.4c1.5,0.2,3.8,1.3,4.1,2.4c0.6,2,1.4,4-0.4,6.6c-1.6,2.3-1.2,6.3-1.2,9.5c0,2.7,1.1,5.3,1.2,8
		c0.1,4.3-3.9,2-5.4,3.8C215,273.3,214.7,273,214.3,272.8z"/>
	<path fill="#FFFFFF" d="M270.4,272.7c0-6.8,0-13.7,0-20.8c-6.1,0-11.8,0-17.6,0c-0.4-3.6-0.8-7-1.1-10.6c0.9-0.2,2-0.6,2.3-0.3
		c4.4,3.8,9.6,1.7,14.4,2.2c1.7,0.2,3.5-0.3,5,0.1c1.8,0.5,4.4,1.2,4.9,2.5c0.8,2,0.4,4.2-1.4,6.5c-1.7,2.3-1.2,6.5-1.2,9.8
		c0,2.6,0.9,5.3,1.3,7.9C277.3,272.6,275.4,273.5,270.4,272.7z"/>
	<path fill="#FFFFFF" d="M388.5,201.2c4.1,0.2,5.8,3.9,7,7.2c3.2,8.4,4.3,17.2,2.5,26.1c-0.8,4.1-3.8,7.1-7.6,7.9
		C389.7,228.7,389.1,215,388.5,201.2z"/>
	<path fill="#FFFFFF" d="M145.4,206c-4.1,13.2-8.1,26.3-12.2,39.4c-3.1-0.8-6.1-5.1-5.4-10c1.2-8.8,3.2-17.4,9.1-24.6
		C140,207.1,142.3,205.9,145.4,206z"/>
	<path fill="#FFFFFF" d="M318.8,387.8c-0.2,3.8-3,6-6,7.6c-9.6,5-19.6,7.8-30.3,4.2c-2.1-0.7-3.6-2.9-5.9-4.8
		C291.4,392.3,304.9,390.1,318.8,387.8z"/>
	<path fill="#FFFFFF" d="M378.8,328.8c3,4.5-0.2,13.1-8.5,21.6c-8.8,9-15.2,11.4-20.7,7.9C359.2,348.6,368.9,338.7,378.8,328.8z"/>
	<path fill="#FFFFFF" d="M366,246.6c-4.4-14.2-8.6-27.3-12.8-40.7c3.4-0.5,6.1,1.8,8.3,4.6c4.6,5.7,7.2,12.5,8.3,19.6
		c0.6,3.6,0.4,7.4-0.1,10.9C369.4,242.8,367.5,244.4,366,246.6z"/>
	<path fill="#FFFFFF" d="M149.4,305.8c4.5,12,10.1,22.9,17.4,32.9c0.8,1.1,0.8,2.6,1.2,4c-1.6,0.2-3.6,1-4.7,0.4
		c-2.9-1.8-6-3.8-8-6.4c-4.8-6.2-8.2-13.4-9.4-21.2C145.4,312,145.6,308.2,149.4,305.8z"/>
	<path fill="#FFFFFF" d="M136.3,265.4c2.1,14.7,4,28.2,5.9,41.6c-2.9,0.8-6.6-0.9-8.2-5.1c-3.8-9.7-5.7-19.7-2.2-30
		C132.6,269.6,134.6,267.8,136.3,265.4z"/>
	<path fill="#FFFFFF" d="M350.4,306.2c2.9,2.9,2.9,6.9,2.2,10.6c-1.6,8.2-5.5,15.4-10.6,22c-2.8,3.6-7.9,5.1-11.5,3.8
		C337,330.5,343.7,318.4,350.4,306.2z"/>
	<path fill="#FFFFFF" d="M356.5,307.4c1.9-14,3.7-27.4,5.5-41c4.5,1.1,5.7,5.7,6.1,9.8c0.9,9.2,0.5,18.3-4.2,26.7
		C362.2,306,359.8,308.1,356.5,307.4z"/>
	<path fill="#FFFFFF" d="M179.4,387.7c14.2,2.4,27.5,4.6,41.3,6.9c0.1,3-2.5,4.8-5,5.4c-11.9,2.8-23,0.1-32.9-6.8
		C181.3,392.1,180.6,389.7,179.4,387.7z"/>
	<path fill="#FFFFFF" d="M188.9,354.6c0.2-0.6,0.5-1.2,0.4-1c12.4,5.9,24.8,11.8,37.2,17.6c-2.9,3.9-5.3,4.5-10.4,3.6
		c-7.9-1.5-14.9-5.1-21-10c-2.9-2.4-4.5-6.4-6.7-9.6C188.6,355,188.8,354.8,188.9,354.6z"/>
	<path fill="#FFFFFF" d="M111.8,200.5c-3.4,13.3-3.4,26.4-3.1,39.4c0,0.8-0.2,1.6-0.2,2.4c-0.9-0.2-2.4,0-2.8-0.6
		c-1.9-3-4.7-6-5-9.2c-0.7-7.8-1-15.7,2-23.3C104.3,205.1,106.6,201.8,111.8,200.5z"/>
	<path fill="#FFFFFF" d="M119.7,328.7c9.8,9.9,19.5,19.6,29.2,29.4c-1.3,1.8-4,2.5-7.9,1.2c-7.3-2.4-11.9-8.1-16.5-13.8
		c-3.3-4-6.1-8.4-5.5-14C119.2,330.6,119.6,329.6,119.7,328.7z"/>
	<path fill="#FFFFFF" d="M340.6,172.3c-1.2-0.6-2.4-1.1-4.2-2c1.1-1.6,2.1-3.2,3.3-4.6c2.3-2.7,4.8-5.4,7.2-8.1
		c2.2-2.5,1.8-5.4-0.8-7.7c-2.8-2.4-5.4-5.1-8.3-7.8c2.3-2.9,4.3-5.3,6.4-8c0.7,0.4,1.8,0.7,1.9,1.1c0.7,5.6,5.6,7.7,8.9,11.1
		c2.3,2.4,3.2,5.3,1.1,7.9C351.2,160.5,345.9,166.3,340.6,172.3z"/>
	<path fill="#FFFFFF" d="M386.7,201.4c0.8,13.7,1.6,27.3,2.4,41c-0.6,0.3-1.1,0.5-1.7,0.8c-1.5-1.5-3.5-2.8-4.3-4.6
		c-3.6-8.1-4-16.7-3.1-25.4c0.3-2.8,1.1-5.5,2.1-8.1c0.6-1.5,1.9-2.7,2.9-4.1C385.5,201,386.1,201.2,386.7,201.4z"/>
	<path fill="#FFFFFF" d="M348.4,357.6c-3.1-5.3-1-8.9,1.2-11.9c5.3-7.4,11.9-13.7,19.9-18.1c2.3-1.3,5.1-2.7,8.7,0.4
		C368.4,337.7,358.7,347.3,348.4,357.6z"/>
	<path fill="#FFFFFF" d="M364.3,246.8c-5.1-0.5-7.2-3-8.9-5.9c-4.6-7.7-6.4-16.4-7.7-25.1c-0.5-3.4-0.2-6.9,4-9.9
		C356,219.6,360,232.8,364.3,246.8z"/>
	<path fill="#FFFFFF" d="M151.4,304.6c10.9,2.7,13.8,13.1,18.6,21.4c2.6,4.5,4.9,10.2,0.2,16.6c-7-12.8-13.6-24.7-20.2-36.7
		C150.4,305.5,150.9,305,151.4,304.6z"/>
	<path fill="#FFFFFF" d="M318.5,386.3c-13.7,2.2-27.1,4.4-40.6,6.6c-1.1-4.4,1.5-6,4-7.1c9.7-4.5,20.1-5.2,30.5-4.4
		C314.8,381.6,317.8,382.2,318.5,386.3z"/>
	<path fill="#FFFFFF" d="M143.8,306.7c-1.9-13.5-3.7-27-5.6-40.5c0.6-0.3,1.1-0.6,1.7-0.9c1.4,1.5,3.3,2.8,4.2,4.6
		c5,10,6.6,20.7,4.9,31.7C148.7,303.7,148.1,306.6,143.8,306.7z"/>
	<path fill="#FFFFFF" d="M395,276.6c-2.3,5.7-4.4,11.4-6.8,16.9c-2.6,5.9-5.4,11.6-8.2,17.4c-0.5,1-1.6,1.8-2.5,2.7
		c-0.8-1.2-2.3-2.4-2.3-3.6c0.1-3.3,0.4-6.7,1.5-9.8c2.8-8,5.7-16,12.2-21.9c1.4-1.3,3.5-1.9,5.2-2.8
		C394.4,275.8,394.7,276.2,395,276.6z"/>
	<path fill="#FFFFFF" d="M269.9,368.2c1.2-2,2.1-4.4,3.8-6c8.4-7.9,18.5-12.2,30.1-12.9c1.6-0.1,3.3,0.7,5,1.2
		c0.1,0.6,0.2,1.1,0.3,1.7c-12.5,5.8-25,11.7-37.5,17.5C271,369.2,270.4,368.7,269.9,368.2z"/>
	<path fill="#FFFFFF" d="M136,246.4c2.1-13.9,6.5-26.9,11.7-40.6c4.5,4.7,3.8,9.9,2.7,14C148,229.7,147.3,240.9,136,246.4z"/>
	<path fill="#FFFFFF" d="M190.2,349.9c2.7-0.2,5.4-1,8-0.5c9.9,1.7,18.7,5.7,26.6,12c2.3,1.8,3.9,4.1,2.8,7.9
		c-13.1-4.8-25.4-11.1-37.6-17.5C190,351.1,190.1,350.5,190.2,349.9z"/>
	<path fill="#FFFFFF" d="M221,392.9c-13.6-2.2-27.1-4.4-41-6.6c2.5-5,9.2-6.8,19.8-4.9c8,1.5,17.3,1,21.8,9.9
		C221.5,391.8,221.3,392.3,221,392.9z"/>
	<path fill="#FFFFFF" d="M360.1,266.4c-0.6,6.5-1.1,13-2,19.5c-0.8,6.1-2,12.1-3.1,18.2c-0.2,0.9-0.9,1.7-1.4,2.5
		c-0.8-0.5-1.9-0.8-2.4-1.6c-0.9-1.3-1.8-2.7-1.9-4.2c-0.5-11.1,0-22.2,6-32.1c0.7-1.3,2.2-2.1,3.3-3.1
		C359.1,265.9,359.6,266.1,360.1,266.4z"/>
	<path fill="#FFFFFF" d="M109.8,242.2c0.7-13.6,1.4-27.2,2.2-40.9c3.8-0.4,4.9,2.3,5.1,4.4c0.8,7.5,1.2,15.1,1.3,22.6
		c0,3-0.9,6.1-2.2,8.9c-1,2.2-3,3.9-4.6,5.9C111,242.8,110.4,242.5,109.8,242.2z"/>
	<path fill="#FFFFFF" d="M329,341.1c-3.7-1.2-3.6-3.9-3.1-6.2c2.8-11.1,8.1-20.9,16.8-28.5c1.2-1,3-1.3,5.1-1.5
		C343,318.1,335.9,329.6,329,341.1z"/>
	<path fill="#FFFFFF" d="M119.9,313.9c-5.4-12.3-10.9-24.7-16.3-37c0.5-0.4,1-0.9,1.4-1.3c1.7,0.9,4,1.4,5.1,2.8
		c7.3,9,13.2,18.7,13.2,30.8c0,1.5-1,3.1-1.6,4.6C121.2,313.9,120.5,313.9,119.9,313.9z"/>
	<path fill="#FFFFFF" d="M120.8,327.5c5.5-2.9,9.1-0.1,11.8,2.2c5.9,5,11.5,10.6,16.6,16.5c2.3,2.7,4.7,6.3,1.2,11
		C140.6,347.3,130.9,337.6,120.8,327.5z"/>
	<path fill="#FFFFFF" d="M321.9,156c-5.4-0.9-5.8-2-2.4-6.6c2.4-3.3,4.7-6.8,6.9-10.2c0.5-0.8,0.9-2.7,0.5-3.1
		c-4.4-3.6-1-6.5,0.7-9.6c0.4-0.8,1-1.5,1.9-2.8c0.8,1.1,1.5,1.8,2,2.7c0.4,0.7,0.4,2,1,2.3c5,2.6,3,5.5,0.9,8.8
		C329.5,143.5,325.9,149.5,321.9,156z"/>
	<path fill="#FFFFFF" d="M298.5,237.3c-7.3,0-14,0.7-20.4-0.4c-2.3-0.4-3.9-4.9-5.9-7.5c0.3-0.4,0.6-0.7,0.9-1.1
		c6.3,0,12.6-0.1,18.9,0.1c1.1,0.1,2.3,1.8,3.2,2.9C296.3,233,297.1,234.7,298.5,237.3z"/>
	<path fill="#FFFFFF" d="M111.7,180.5c2.9-2.3,5.2-4.4,7.8-5.9c1.1-0.6,3.3-0.7,4.2,0c5.1,3.8,10,7.9,15.1,12
		c-4.8,3.9-4.7,3.9-7.4-0.3c-0.4-0.6-1-1.2-1.5-1.8c-3.5-3.5-4.3-3.4-9,1.4C118,184.2,115.1,182.4,111.7,180.5z"/>
	<path fill="#FFFFFF" d="M226,284.1c-6.3,0-12.7,0.4-19-0.3c-2-0.2-3.6-3.5-5.4-5.3c0.3-0.4,0.5-0.7,0.8-1.1
		c6.6,0,13.2-0.3,19.8,0.2c1.7,0.1,3.1,3.2,4.6,5C226.5,283.2,226.2,283.7,226,284.1z"/>
	<path fill="#FFFFFF" d="M199.5,272.2c-2,0.4-3.8,0.7-6.2,1.1c0.3-2.9,0.5-5.2,0.6-7.6c0.1-2.4,0-4.9,0-7.4c1.9-0.5,3.5-0.8,5.5-1.3
		C199.5,262.2,199.5,267,199.5,272.2z"/>
	<path fill="#FFFFFF" d="M281.3,274.1c0-4.6,0.2-7.9-0.1-11.1c-0.4-4.1,1.4-5.7,5.9-5.6c0,4.5,0.4,9.1-0.2,13.4
		C286.8,272,283.6,272.8,281.3,274.1z"/>
</g>
</svg>
